<mxfile host="app.diagrams.net" modified="2024-06-07T07:42:58.758Z" agent="Mozilla/5.0 (Windows NT 10.0; Win64; x64) AppleWebKit/537.36 (KHTML, like Gecko) Chrome/125.0.0.0 Safari/537.36" etag="Twh7NzvwGJ4q6y51QLd_" version="24.5.1" type="github">
  <diagram name="第 1 页" id="ZFyoDbLdw-B5j8mSAKzF">
    <mxGraphModel dx="842" dy="523" grid="0" gridSize="10" guides="1" tooltips="1" connect="1" arrows="1" fold="1" page="1" pageScale="1" pageWidth="827" pageHeight="1169" math="0" shadow="0">
      <root>
        <mxCell id="0" />
        <mxCell id="1" parent="0" />
        <mxCell id="nlFMfMajbjL_BaTsONox-35" value="&lt;font color=&quot;#6c8ebf&quot; style=&quot;font-size: 20px;&quot; face=&quot;Times New Roman&quot;&gt;&lt;b style=&quot;&quot;&gt;C&lt;/b&gt;&lt;/font&gt;" style="rounded=0;whiteSpace=wrap;html=1;fillColor=#dae8fc;strokeColor=#DAE8FC;" parent="1" vertex="1">
          <mxGeometry x="254" y="127" width="120" height="240" as="geometry" />
        </mxCell>
        <mxCell id="nlFMfMajbjL_BaTsONox-36" value="&lt;font color=&quot;#6c8ebf&quot; style=&quot;font-size: 20px;&quot; face=&quot;Times New Roman&quot;&gt;&lt;b style=&quot;&quot;&gt;C&lt;/b&gt;&lt;/font&gt;" style="rounded=0;whiteSpace=wrap;html=1;fillColor=#DAE8FC;strokeColor=#DAE8FC;" parent="1" vertex="1">
          <mxGeometry x="694" y="127" width="120" height="240" as="geometry" />
        </mxCell>
        <mxCell id="nlFMfMajbjL_BaTsONox-33" value="&lt;font color=&quot;#d6b656&quot; style=&quot;font-size: 20px;&quot; face=&quot;Times New Roman&quot;&gt;&lt;b&gt;B&lt;/b&gt;&lt;/font&gt;" style="rounded=0;whiteSpace=wrap;html=1;fillColor=#fff2cc;strokeColor=#FFF2CC;" parent="1" vertex="1">
          <mxGeometry x="574" y="127" width="120" height="240" as="geometry" />
        </mxCell>
        <mxCell id="nlFMfMajbjL_BaTsONox-32" value="&lt;font color=&quot;#d6b656&quot; style=&quot;font-size: 20px;&quot; face=&quot;Times New Roman&quot;&gt;&lt;b&gt;B&lt;/b&gt;&lt;/font&gt;" style="rounded=0;whiteSpace=wrap;html=1;fillColor=#FFF2CC;strokeColor=#FFF2CC;" parent="1" vertex="1">
          <mxGeometry x="134" y="127" width="120" height="240" as="geometry" />
        </mxCell>
        <mxCell id="nlFMfMajbjL_BaTsONox-31" value="&lt;font face=&quot;Times New Roman&quot; style=&quot;font-size: 20px;&quot; color=&quot;#82b366&quot;&gt;A&lt;/font&gt;" style="rounded=0;whiteSpace=wrap;html=1;fillColor=#D5E8D4;strokeColor=#D5E8D4;fontStyle=1" parent="1" vertex="1">
          <mxGeometry x="454" y="127" width="120" height="240" as="geometry" />
        </mxCell>
        <mxCell id="nlFMfMajbjL_BaTsONox-29" value="&lt;font face=&quot;Times New Roman&quot; style=&quot;font-size: 20px;&quot; color=&quot;#82b366&quot;&gt;A&lt;/font&gt;" style="rounded=0;whiteSpace=wrap;html=1;fillColor=#D5E8D4;strokeColor=#D5E8D4;fontStyle=1" parent="1" vertex="1">
          <mxGeometry x="14" y="127" width="120" height="240" as="geometry" />
        </mxCell>
        <mxCell id="nlFMfMajbjL_BaTsONox-2" value="" style="endArrow=classic;startArrow=classic;html=1;rounded=0;" parent="1" edge="1">
          <mxGeometry width="50" height="50" relative="1" as="geometry">
            <mxPoint x="54" y="387" as="sourcePoint" />
            <mxPoint x="54" y="107" as="targetPoint" />
          </mxGeometry>
        </mxCell>
        <mxCell id="nlFMfMajbjL_BaTsONox-3" value="" style="endArrow=none;dashed=1;html=1;rounded=0;strokeWidth=2;fillColor=#ffe6cc;strokeColor=#d79b00;entryX=0;entryY=0.5;entryDx=0;entryDy=0;" parent="1" target="nlFMfMajbjL_BaTsONox-9" edge="1">
          <mxGeometry width="50" height="50" relative="1" as="geometry">
            <mxPoint x="54" y="147" as="sourcePoint" />
            <mxPoint x="254" y="147" as="targetPoint" />
          </mxGeometry>
        </mxCell>
        <mxCell id="nlFMfMajbjL_BaTsONox-4" value="" style="endArrow=none;dashed=1;html=1;rounded=0;strokeWidth=2;fillColor=#ffe6cc;strokeColor=#d79b00;entryX=0;entryY=0.5;entryDx=0;entryDy=0;" parent="1" target="nlFMfMajbjL_BaTsONox-8" edge="1">
          <mxGeometry width="50" height="50" relative="1" as="geometry">
            <mxPoint x="54" y="187" as="sourcePoint" />
            <mxPoint x="134" y="187" as="targetPoint" />
          </mxGeometry>
        </mxCell>
        <mxCell id="nlFMfMajbjL_BaTsONox-8" value="&lt;b&gt;x&lt;sub&gt;u&lt;/sub&gt;&lt;/b&gt;" style="ellipse;whiteSpace=wrap;html=1;aspect=fixed;fillColor=#C9C9C9;fontColor=#333333;strokeColor=#C9C9C9;" parent="1" vertex="1">
          <mxGeometry x="144" y="177" width="20" height="20" as="geometry" />
        </mxCell>
        <mxCell id="nlFMfMajbjL_BaTsONox-9" value="&lt;b&gt;x&lt;sub&gt;t&lt;/sub&gt;&lt;/b&gt;" style="ellipse;whiteSpace=wrap;html=1;aspect=fixed;fillColor=#C9C9C9;fontColor=#333333;strokeColor=#C9C9C9;" parent="1" vertex="1">
          <mxGeometry x="264" y="137" width="20" height="20" as="geometry" />
        </mxCell>
        <mxCell id="nlFMfMajbjL_BaTsONox-15" value="" style="endArrow=classic;startArrow=classic;html=1;rounded=0;" parent="1" edge="1">
          <mxGeometry width="50" height="50" relative="1" as="geometry">
            <mxPoint x="454" y="387" as="sourcePoint" />
            <mxPoint x="454" y="107" as="targetPoint" />
          </mxGeometry>
        </mxCell>
        <mxCell id="nlFMfMajbjL_BaTsONox-16" value="" style="endArrow=none;dashed=1;html=1;rounded=0;strokeWidth=2;fillColor=#ffe6cc;strokeColor=#d79b00;entryX=0;entryY=0.5;entryDx=0;entryDy=0;" parent="1" target="nlFMfMajbjL_BaTsONox-19" edge="1">
          <mxGeometry width="50" height="50" relative="1" as="geometry">
            <mxPoint x="454" y="147" as="sourcePoint" />
            <mxPoint x="654" y="147" as="targetPoint" />
          </mxGeometry>
        </mxCell>
        <mxCell id="nlFMfMajbjL_BaTsONox-17" value="" style="endArrow=none;dashed=1;html=1;rounded=0;strokeWidth=2;fillColor=#ffe6cc;strokeColor=#d79b00;entryX=0;entryY=0.5;entryDx=0;entryDy=0;" parent="1" target="nlFMfMajbjL_BaTsONox-18" edge="1">
          <mxGeometry width="50" height="50" relative="1" as="geometry">
            <mxPoint x="454" y="187" as="sourcePoint" />
            <mxPoint x="534" y="187" as="targetPoint" />
          </mxGeometry>
        </mxCell>
        <mxCell id="nlFMfMajbjL_BaTsONox-18" value="&lt;b&gt;x&lt;sub&gt;u&lt;/sub&gt;&lt;/b&gt;" style="ellipse;whiteSpace=wrap;html=1;aspect=fixed;fillColor=#C9C9C9;fontColor=#333333;strokeColor=#C9C9C9;" parent="1" vertex="1">
          <mxGeometry x="544" y="177" width="20" height="20" as="geometry" />
        </mxCell>
        <mxCell id="nlFMfMajbjL_BaTsONox-19" value="&lt;b&gt;x&lt;sub&gt;t&lt;/sub&gt;&lt;/b&gt;" style="ellipse;whiteSpace=wrap;html=1;aspect=fixed;fillColor=#C9C9C9;fontColor=#333333;strokeColor=#C9C9C9;" parent="1" vertex="1">
          <mxGeometry x="664" y="137" width="20" height="20" as="geometry" />
        </mxCell>
        <mxCell id="nlFMfMajbjL_BaTsONox-21" value="" style="endArrow=none;dashed=1;html=1;rounded=0;fillColor=#dae8fc;strokeColor=#6c8ebf;strokeWidth=2;" parent="1" edge="1">
          <mxGeometry width="50" height="50" relative="1" as="geometry">
            <mxPoint x="54" y="307" as="sourcePoint" />
            <mxPoint x="134" y="307" as="targetPoint" />
          </mxGeometry>
        </mxCell>
        <mxCell id="nlFMfMajbjL_BaTsONox-22" value="" style="endArrow=none;dashed=1;html=1;rounded=0;fillColor=#dae8fc;strokeColor=#6c8ebf;strokeWidth=2;" parent="1" edge="1">
          <mxGeometry width="50" height="50" relative="1" as="geometry">
            <mxPoint x="54" y="347" as="sourcePoint" />
            <mxPoint x="254" y="347" as="targetPoint" />
          </mxGeometry>
        </mxCell>
        <mxCell id="nlFMfMajbjL_BaTsONox-23" value="" style="endArrow=none;dashed=1;html=1;rounded=0;fillColor=#dae8fc;strokeColor=#6c8ebf;strokeWidth=2;" parent="1" edge="1">
          <mxGeometry width="50" height="50" relative="1" as="geometry">
            <mxPoint x="454" y="347" as="sourcePoint" />
            <mxPoint x="694" y="347" as="targetPoint" />
          </mxGeometry>
        </mxCell>
        <mxCell id="nlFMfMajbjL_BaTsONox-24" value="" style="endArrow=none;dashed=1;html=1;rounded=0;fillColor=#dae8fc;strokeColor=#6c8ebf;strokeWidth=2;" parent="1" edge="1">
          <mxGeometry width="50" height="50" relative="1" as="geometry">
            <mxPoint x="454" y="307" as="sourcePoint" />
            <mxPoint x="574" y="307" as="targetPoint" />
          </mxGeometry>
        </mxCell>
        <mxCell id="nlFMfMajbjL_BaTsONox-25" value="" style="endArrow=none;dashed=1;html=1;rounded=0;fillColor=#f5f5f5;strokeColor=#666666;strokeWidth=3;" parent="1" edge="1">
          <mxGeometry width="50" height="50" relative="1" as="geometry">
            <mxPoint x="134" y="387" as="sourcePoint" />
            <mxPoint x="134" y="107" as="targetPoint" />
          </mxGeometry>
        </mxCell>
        <mxCell id="nlFMfMajbjL_BaTsONox-26" value="" style="endArrow=none;dashed=1;html=1;rounded=0;fillColor=#f5f5f5;strokeColor=#666666;strokeWidth=3;" parent="1" edge="1">
          <mxGeometry width="50" height="50" relative="1" as="geometry">
            <mxPoint x="254" y="387" as="sourcePoint" />
            <mxPoint x="254" y="107" as="targetPoint" />
          </mxGeometry>
        </mxCell>
        <mxCell id="nlFMfMajbjL_BaTsONox-27" value="" style="endArrow=none;dashed=1;html=1;rounded=0;fillColor=#f5f5f5;strokeColor=#666666;strokeWidth=3;" parent="1" edge="1">
          <mxGeometry width="50" height="50" relative="1" as="geometry">
            <mxPoint x="574" y="387" as="sourcePoint" />
            <mxPoint x="574" y="107" as="targetPoint" />
          </mxGeometry>
        </mxCell>
        <mxCell id="nlFMfMajbjL_BaTsONox-28" value="" style="endArrow=none;dashed=1;html=1;rounded=0;fillColor=#f5f5f5;strokeColor=#666666;strokeWidth=3;" parent="1" edge="1">
          <mxGeometry width="50" height="50" relative="1" as="geometry">
            <mxPoint x="694" y="387" as="sourcePoint" />
            <mxPoint x="694" y="107" as="targetPoint" />
          </mxGeometry>
        </mxCell>
        <mxCell id="nlFMfMajbjL_BaTsONox-37" value="&lt;font face=&quot;Times New Roman&quot; style=&quot;font-size: 16px;&quot;&gt;&lt;b&gt;ASR-1&lt;/b&gt;&lt;/font&gt;" style="text;html=1;align=center;verticalAlign=middle;whiteSpace=wrap;rounded=0;" parent="1" vertex="1">
          <mxGeometry x="164" y="390" width="60" height="30" as="geometry" />
        </mxCell>
        <mxCell id="nlFMfMajbjL_BaTsONox-38" value="&lt;font face=&quot;Times New Roman&quot; style=&quot;font-size: 16px;&quot;&gt;&lt;b&gt;ASR-2&lt;/b&gt;&lt;/font&gt;" style="text;html=1;align=center;verticalAlign=middle;whiteSpace=wrap;rounded=0;" parent="1" vertex="1">
          <mxGeometry x="604" y="390" width="60" height="30" as="geometry" />
        </mxCell>
        <mxCell id="nlFMfMajbjL_BaTsONox-39" value="&lt;font style=&quot;font-size: 16px;&quot; face=&quot;Times New Roman&quot;&gt;d&lt;/font&gt;&lt;span style=&quot;font-family: &amp;quot;Times New Roman&amp;quot;; font-size: 13.3333px;&quot;&gt;1&lt;/span&gt;" style="text;html=1;align=center;verticalAlign=middle;whiteSpace=wrap;rounded=0;fontStyle=1" parent="1" vertex="1">
          <mxGeometry x="64" y="157" width="60" height="30" as="geometry" />
        </mxCell>
        <mxCell id="nlFMfMajbjL_BaTsONox-41" value="&lt;font style=&quot;font-size: 16px;&quot; face=&quot;Times New Roman&quot;&gt;d&lt;sub&gt;2&lt;/sub&gt;&lt;/font&gt;" style="text;html=1;align=center;verticalAlign=middle;whiteSpace=wrap;rounded=0;fontStyle=1" parent="1" vertex="1">
          <mxGeometry x="594" y="117" width="60" height="30" as="geometry" />
        </mxCell>
        <mxCell id="nlFMfMajbjL_BaTsONox-44" value="&lt;font style=&quot;font-size: 16px;&quot; face=&quot;Times New Roman&quot;&gt;l&lt;sub&gt;1&lt;/sub&gt;&lt;/font&gt;" style="text;html=1;align=center;verticalAlign=middle;whiteSpace=wrap;rounded=0;fontStyle=1" parent="1" vertex="1">
          <mxGeometry x="64" y="277" width="60" height="30" as="geometry" />
        </mxCell>
        <mxCell id="nlFMfMajbjL_BaTsONox-45" value="&lt;font style=&quot;font-size: 16px;&quot; face=&quot;Times New Roman&quot;&gt;l&lt;sub&gt;2&lt;/sub&gt;&lt;/font&gt;" style="text;html=1;align=center;verticalAlign=middle;whiteSpace=wrap;rounded=0;fontStyle=1" parent="1" vertex="1">
          <mxGeometry x="164" y="317" width="60" height="30" as="geometry" />
        </mxCell>
        <mxCell id="nlFMfMajbjL_BaTsONox-46" value="&lt;font style=&quot;font-size: 16px;&quot; face=&quot;Times New Roman&quot;&gt;l&lt;sub&gt;1&lt;/sub&gt;&lt;/font&gt;" style="text;html=1;align=center;verticalAlign=middle;whiteSpace=wrap;rounded=0;fontStyle=1" parent="1" vertex="1">
          <mxGeometry x="484" y="277" width="60" height="30" as="geometry" />
        </mxCell>
        <mxCell id="nlFMfMajbjL_BaTsONox-47" value="&lt;font style=&quot;font-size: 16px;&quot; face=&quot;Times New Roman&quot;&gt;l&lt;sub&gt;2&lt;/sub&gt;&lt;/font&gt;" style="text;html=1;align=center;verticalAlign=middle;whiteSpace=wrap;rounded=0;fontStyle=1" parent="1" vertex="1">
          <mxGeometry x="604" y="317" width="60" height="30" as="geometry" />
        </mxCell>
        <mxCell id="nlFMfMajbjL_BaTsONox-49" value="&lt;font style=&quot;font-size: 16px;&quot; face=&quot;Times New Roman&quot;&gt;d&lt;sub&gt;2&lt;/sub&gt;&lt;/font&gt;" style="text;html=1;align=center;verticalAlign=middle;whiteSpace=wrap;rounded=0;fontStyle=1" parent="1" vertex="1">
          <mxGeometry x="164" y="117" width="60" height="30" as="geometry" />
        </mxCell>
        <mxCell id="nlFMfMajbjL_BaTsONox-50" value="&lt;font style=&quot;font-size: 16px;&quot; face=&quot;Times New Roman&quot;&gt;d&lt;/font&gt;&lt;span style=&quot;font-family: &amp;quot;Times New Roman&amp;quot;; font-size: 13.3333px;&quot;&gt;1&lt;/span&gt;" style="text;html=1;align=center;verticalAlign=middle;whiteSpace=wrap;rounded=0;fontStyle=1" parent="1" vertex="1">
          <mxGeometry x="474" y="157" width="60" height="30" as="geometry" />
        </mxCell>
        <mxCell id="nlFMfMajbjL_BaTsONox-52" value="" style="endArrow=none;dashed=1;html=1;rounded=0;strokeWidth=2;fillColor=#ffe6cc;strokeColor=#d79b00;" parent="1" edge="1">
          <mxGeometry width="50" height="50" relative="1" as="geometry">
            <mxPoint x="44" y="67" as="sourcePoint" />
            <mxPoint x="124" y="67" as="targetPoint" />
          </mxGeometry>
        </mxCell>
        <mxCell id="nlFMfMajbjL_BaTsONox-53" value="" style="endArrow=none;dashed=1;html=1;rounded=0;fillColor=#f5f5f5;strokeColor=#666666;strokeWidth=3;" parent="1" edge="1">
          <mxGeometry width="50" height="50" relative="1" as="geometry">
            <mxPoint x="244" y="66.66" as="sourcePoint" />
            <mxPoint x="324" y="66.66" as="targetPoint" />
          </mxGeometry>
        </mxCell>
        <mxCell id="nlFMfMajbjL_BaTsONox-54" value="" style="endArrow=none;dashed=1;html=1;rounded=0;fillColor=#dae8fc;strokeColor=#6c8ebf;strokeWidth=2;" parent="1" edge="1">
          <mxGeometry width="50" height="50" relative="1" as="geometry">
            <mxPoint x="444" y="66.66" as="sourcePoint" />
            <mxPoint x="530" y="66.66" as="targetPoint" />
          </mxGeometry>
        </mxCell>
        <mxCell id="nlFMfMajbjL_BaTsONox-56" value="&lt;font style=&quot;font-size: 16px;&quot; face=&quot;Times New Roman&quot;&gt;&lt;b&gt;对抗距离&lt;/b&gt;&lt;/font&gt;" style="text;html=1;align=center;verticalAlign=middle;whiteSpace=wrap;rounded=0;" parent="1" vertex="1">
          <mxGeometry x="134" y="47" width="70" height="40" as="geometry" />
        </mxCell>
        <mxCell id="nlFMfMajbjL_BaTsONox-57" value="&lt;font style=&quot;font-size: 16px;&quot; face=&quot;Times New Roman&quot;&gt;&lt;b&gt;决策边界&lt;/b&gt;&lt;/font&gt;" style="text;html=1;align=center;verticalAlign=middle;whiteSpace=wrap;rounded=0;" parent="1" vertex="1">
          <mxGeometry x="334" y="47" width="67" height="40" as="geometry" />
        </mxCell>
        <mxCell id="nlFMfMajbjL_BaTsONox-58" value="&lt;font style=&quot;font-size: 16px;&quot; face=&quot;Times New Roman&quot;&gt;&lt;b&gt;决策距离&lt;/b&gt;&lt;/font&gt;" style="text;html=1;align=center;verticalAlign=middle;whiteSpace=wrap;rounded=0;" parent="1" vertex="1">
          <mxGeometry x="544" y="47" width="70" height="40" as="geometry" />
        </mxCell>
        <mxCell id="nlFMfMajbjL_BaTsONox-59" value="" style="ellipse;whiteSpace=wrap;html=1;aspect=fixed;fillColor=#C9C9C9;fontColor=#333333;strokeColor=#C9C9C9;" parent="1" vertex="1">
          <mxGeometry x="684" y="57" width="20" height="20" as="geometry" />
        </mxCell>
        <mxCell id="nlFMfMajbjL_BaTsONox-61" value="&lt;font style=&quot;font-size: 16px;&quot; face=&quot;Times New Roman&quot;&gt;&lt;b&gt;对抗样本&lt;/b&gt;&lt;/font&gt;" style="text;html=1;align=center;verticalAlign=middle;whiteSpace=wrap;rounded=0;" parent="1" vertex="1">
          <mxGeometry x="714" y="47" width="70" height="40" as="geometry" />
        </mxCell>
      </root>
    </mxGraphModel>
  </diagram>
</mxfile>
